<?xml version="1.0" standalone="no"?>
<!DOCTYPE svg PUBLIC "-//W3C//DTD SVG 20010904//EN"
 "http://www.w3.org/TR/2001/REC-SVG-20010904/DTD/svg10.dtd">
<svg version="1.0" xmlns="http://www.w3.org/2000/svg"
 width="128.000000pt" height="128.000000pt" viewBox="0 0 128.000000 128.000000"
 preserveAspectRatio="xMidYMid meet">

<g transform="translate(0.000000,128.000000) scale(0.100000,-0.100000)"
fill="#000000" stroke="none">
<path d="M75 1271 c-11 -5 -31 -21 -45 -36 l-25 -27 0 -569 0 -569 33 -32 32
-33 570 0 570 0 32 33 33 32 0 570 0 570 -33 32 -32 33 -558 2 c-306 1 -566
-2 -577 -6z m477 -78 c24 -22 23 -86 -6 -283 l-23 -155 -29 0 c-19 0 -28 5
-26 13 1 8 8 72 14 144 12 126 12 131 -10 171 -28 53 -28 75 0 104 25 27 54
29 80 6z m411 -11 c35 -31 19 -73 -44 -110 -40 -24 -153 -160 -228 -277 -29
-44 -57 -83 -64 -87 -13 -8 -47 8 -47 22 0 6 23 38 50 72 56 70 108 154 168
273 28 56 51 88 77 107 38 27 56 27 88 0z m-696 -114 c11 -13 30 -54 42 -92
24 -74 52 -134 83 -179 11 -15 18 -36 15 -46 -4 -15 4 -17 62 -17 106 1 167
-51 159 -135 -2 -24 -9 -35 -23 -38 -36 -6 -73 -40 -173 -156 -71 -83 -113
-144 -152 -220 -50 -95 -58 -105 -83 -105 -16 0 -27 3 -25 8 2 4 25 52 51 107
67 141 77 174 84 294 5 92 4 108 -11 120 -9 8 -69 27 -134 42 -123 31 -145 44
-140 89 4 34 55 39 102 10 44 -26 121 -50 167 -50 36 0 121 29 87 30 -10 0
-33 25 -54 58 -20 31 -53 77 -74 102 -41 50 -80 120 -80 145 0 55 59 74 97 33z
m487 -458 c73 -25 286 -76 351 -85 103 -14 146 -40 160 -98 10 -40 -17 -67
-66 -67 -31 0 -48 8 -88 44 -32 29 -77 54 -131 75 -88 33 -238 78 -280 83 -25
3 -37 26 -26 54 7 18 12 18 80 -6z"/>
</g>
</svg>
